<?xml version="1.0" encoding="utf-8"?>
<!-- Generator: Adobe Illustrator 25.0.0, SVG Export Plug-In . SVG Version: 6.00 Build 0)  -->
<svg version="1.1" id="Layer_1" xmlns="http://www.w3.org/2000/svg" xmlns:xlink="http://www.w3.org/1999/xlink" x="0px" y="0px"
	 viewBox="0 0 786.25 100.52" style="enable-background:new 0 0 786.25 100.52;" xml:space="preserve">
<style type="text/css">
	.st0{fill:#0A1C44;}
	.st1{fill:#2776EA;}
</style>
<g>
	<g>
		<path class="st0" d="M308.5,59.41c0-21.72,17.02-38.74,38.49-38.74c21.34,0,38.49,17.02,38.49,38.74
			c0,21.34-17.15,38.61-38.49,38.61C325.52,98.02,308.5,80.75,308.5,59.41z M368.58,59.41c0-12.57-9.4-22.61-21.59-22.61
			c-12.32,0-21.59,10.04-21.59,22.61c0,12.32,9.27,22.48,21.59,22.48C359.18,81.89,368.58,71.73,368.58,59.41z"/>
		<path class="st0" d="M445.06,22.19h17.53l16.39,51.19l18.67-51.19h17.02l18.29,51.32l17.02-51.32h17.4L541.34,96.5h-16.51
			l-18.8-51.44L486.72,96.5h-16.89L445.06,22.19z"/>
		<path class="st0" d="M566.62,59.41c0-24.64,18.04-38.74,36.84-38.74c9.78,0,18.42,3.94,23.88,10.42v-8.89h17.15V96.5h-17.15v-9.65
			c-5.46,6.99-14.35,11.18-24.13,11.18C585.29,98.02,566.62,83.8,566.62,59.41z M628.23,59.15c0-12.7-9.4-22.86-22.23-22.86
			c-12.7,0-22.48,10.03-22.48,22.86c0,12.96,9.78,23.12,22.48,23.12C618.83,82.27,628.23,71.98,628.23,59.15z"/>
		<path class="st0" d="M704.7,59.41c0-24.64,18.04-38.74,36.84-38.74c9.65,0,18.29,3.81,23.75,10.29V2.5h17.28v94h-17.15v-9.65
			c-5.46,6.99-14.35,11.18-24.13,11.18C723.37,98.02,704.7,83.8,704.7,59.41z M766.3,59.15c0-12.7-9.4-22.86-22.23-22.86
			c-12.7,0-22.48,10.03-22.48,22.86c0,12.96,9.78,23.12,22.48,23.12C756.9,82.27,766.3,71.98,766.3,59.15z"/>
		<g>
			<g>
				<g>
					<polygon class="st0" points="410,22.19 392.98,22.19 392.98,96.5 410,96.5 410,33.24 					"/>
				</g>
				<g>
					<path class="st1" d="M410,46.79v-2.28c0-3.2,2.6-5.8,5.8-5.8h21.83V22.19h-13.65c-4.48,0-8.67,2.25-11.14,5.99L410,32.49V46.79
						z"/>
				</g>
			</g>
		</g>
		<g>
			<g>
				<g>
					<polygon class="st0" points="671.92,22.19 654.9,22.19 654.9,96.5 671.92,96.5 671.92,33.24 					"/>
				</g>
				<g>
					<path class="st1" d="M671.92,46.79v-2.28c0-3.2,2.6-5.8,5.8-5.8h21.83V22.19h-13.65c-4.48,0-8.67,2.25-11.14,5.99l-2.85,4.31
						V46.79z"/>
				</g>
			</g>
		</g>
		<polygon class="st0" points="302.02,20.28 302.02,3.77 246.18,3.77 246.18,41.49 257.73,50.14 257.74,50.13 257.74,50.14 
			257.73,50.14 246.18,58.78 246.18,96.5 263.45,96.5 263.45,58.14 302.02,58.14 302.02,41.62 263.45,41.62 263.45,20.28 		"/>
		<g>
			<path class="st0" d="M133.88,62.96c0,13.08-6.99,20.2-16.51,20.2c-10.8,0-15.88-7.12-15.88-18.67v-42.3h-17.4v44.08
				c0,20.2,10.8,31.75,28.58,31.75c9.53,0,16.64-3.81,21.34-10.03v8.51h17.02V22.19h-17.15V62.96z"/>
			<path class="st0" d="M202.1,20.67c-10.04,0-18.8,4.32-24.01,10.92V2.5h-17.15v94h17.02v-9.65c5.46,7.11,14.23,11.18,24.39,11.18
				c17.78,0,36.33-14.22,36.33-38.61C238.68,34.76,220.77,20.67,202.1,20.67z M199.43,82.27c-12.7,0-22.1-10.29-22.1-23.12
				c0-12.7,9.4-22.86,22.1-22.86c12.58,0,22.36,10.03,22.36,22.86C221.78,72.11,212,82.27,199.43,82.27z"/>
			<polygon class="st0" points="56.9,41.88 20.96,41.88 20.96,3.77 3.68,3.77 3.68,39.67 17.67,50.14 17.68,50.13 17.68,50.14 
				17.67,50.14 3.68,60.6 3.68,96.5 20.96,96.5 20.96,58.39 56.9,58.39 56.9,96.5 74.18,96.5 74.18,3.77 56.9,3.77 			"/>
		</g>
	</g>
</g>
</svg>
